<?xml version="1.0" standalone="no"?>
<!DOCTYPE svg PUBLIC "-//W3C//DTD SVG 20010904//EN"
 "http://www.w3.org/TR/2001/REC-SVG-20010904/DTD/svg10.dtd">
<svg version="1.0" xmlns="http://www.w3.org/2000/svg"
 width="800.000000pt" height="600.000000pt" viewBox="0 0 800.000000 600.000000"
 preserveAspectRatio="xMidYMid meet">

<g transform="translate(0.000000,600.000000) scale(0.100000,-0.100000)"
fill="#000000" stroke="none">
<path d="M3705 4196 c-61 -27 -95 -93 -95 -183 1 -155 140 -236 240 -138 98
96 69 278 -53 324 -36 14 -55 13 -92 -3z"/>
<path d="M4195 4196 c-63 -29 -105 -101 -105 -181 0 -133 126 -227 220 -163
68 46 98 117 86 202 -17 108 -119 180 -201 142z"/>
<path d="M3385 3810 c-11 -4 -33 -22 -50 -39 -40 -43 -48 -137 -16 -198 23
-46 71 -90 107 -99 103 -26 190 90 155 208 -16 53 -74 115 -119 128 -43 12
-50 12 -77 0z"/>
<path d="M4534 3809 c-80 -24 -141 -150 -114 -235 33 -103 130 -135 210 -68
51 44 73 97 68 171 -4 57 -8 67 -38 98 -38 38 -78 49 -126 34z"/>
<path d="M3893 3702 c-102 -36 -154 -86 -211 -199 -18 -34 -57 -90 -88 -125
-79 -88 -108 -154 -108 -243 1 -113 55 -194 154 -229 58 -21 130 -18 250 9 83
19 177 16 270 -10 82 -22 156 -19 215 9 95 45 139 117 138 228 -1 86 -31 151
-107 236 -31 35 -72 93 -90 130 -67 131 -168 202 -300 209 -51 3 -85 -2 -123
-15z"/>
<path d="M2880 2701 c0 -12 6 -21 14 -21 16 0 26 -43 26 -109 -1 -38 -3 -43
-13 -30 -21 28 -54 40 -80 30 -37 -14 -57 -76 -57 -176 0 -98 19 -157 56 -173
31 -15 70 -1 79 28 8 24 25 17 25 -11 0 -16 7 -19 40 -19 43 0 53 17 25 40
-12 10 -15 53 -17 234 l-3 221 -47 3 c-43 3 -48 1 -48 -17z m20 -191 c14 -27
14 -204 0 -230 -14 -27 -41 -22 -58 10 -17 33 -12 200 7 223 18 23 38 21 51
-3z"/>
<path d="M3064 2695 c-3 -14 -4 -32 0 -40 14 -39 66 -23 66 19 0 47 -55 64
-66 21z"/>
<path d="M4070 2710 c0 -16 71 -90 86 -90 18 0 18 1 -8 55 -18 37 -27 45 -50
45 -15 0 -28 -4 -28 -10z"/>
<path d="M2053 2670 c-18 -10 -42 -39 -55 -62 -20 -38 -23 -57 -23 -158 0
-107 2 -118 27 -161 40 -68 111 -91 185 -60 30 12 31 15 35 88 3 56 8 78 21
88 34 25 19 35 -53 35 -55 0 -70 -3 -70 -15 0 -8 9 -19 20 -25 17 -9 20 -21
20 -76 l0 -65 -37 3 c-26 2 -42 11 -57 31 -19 26 -21 42 -21 162 0 120 2 136
21 162 16 21 30 28 55 28 31 0 35 -4 47 -42 12 -37 16 -41 32 -33 23 12 34 43
25 70 -15 48 -115 65 -172 30z"/>
<path d="M4425 2665 c-29 -28 -34 -85 -9 -109 24 -25 30 -20 40 37 8 46 12 52
34 52 24 0 25 -3 28 -68 3 -76 -13 -121 -79 -223 -27 -42 -39 -71 -39 -97 l0
-37 100 0 100 0 0 65 c0 51 -3 65 -15 65 -8 0 -15 -8 -15 -18 0 -30 -22 -42
-77 -42 -29 0 -53 2 -53 5 0 3 22 38 49 78 88 131 111 192 91 252 -15 44 -44
65 -93 65 -27 0 -45 -7 -62 -25z"/>
<path d="M5320 2614 c-7 -19 -20 -40 -31 -47 -23 -14 -25 -37 -4 -37 13 0 15
-20 15 -124 0 -136 8 -171 43 -187 32 -15 77 4 77 32 0 14 -5 19 -15 15 -8 -3
-21 2 -30 10 -12 12 -15 41 -15 135 l0 119 30 0 c23 0 30 4 30 20 0 16 -7 20
-30 20 -28 0 -30 2 -30 40 0 51 -24 54 -40 4z"/>
<path d="M5495 2620 c-4 -16 -17 -38 -31 -49 -27 -21 -31 -41 -9 -41 12 0 15
-21 16 -122 1 -144 6 -168 39 -186 33 -18 80 -2 80 27 0 12 -5 18 -12 16 -7
-3 -20 -1 -28 5 -12 7 -15 34 -15 132 l0 123 28 3 c19 2 27 9 27 23 0 14 -7
19 -30 19 -28 0 -30 2 -30 40 0 48 -25 56 -35 10z"/>
<path d="M2347 2568 c-46 -16 -48 -87 -3 -96 10 -2 16 3 16 15 0 11 6 28 14
38 22 30 46 3 46 -51 0 -44 0 -44 -42 -50 -60 -10 -88 -42 -88 -99 0 -54 21
-101 50 -110 23 -7 55 8 69 33 10 15 11 15 17 -5 5 -19 13 -23 45 -23 42 0 52
17 24 40 -12 10 -15 38 -15 131 0 133 -9 163 -53 179 -35 12 -43 12 -80 -2z
m73 -221 c0 -64 -47 -116 -64 -71 -18 48 7 114 45 114 16 0 19 -7 19 -43z"/>
<path d="M2654 2555 c-30 -30 -34 -31 -34 -5 0 17 -7 20 -45 20 -49 0 -55 -10
-25 -40 18 -18 20 -33 20 -135 0 -102 -2 -117 -20 -135 -33 -33 -24 -40 50
-40 54 0 70 3 70 14 0 8 -9 18 -20 21 -18 6 -20 15 -20 115 0 92 3 111 19 131
l20 24 13 -32 c12 -28 17 -31 31 -20 28 21 32 62 8 86 -27 27 -36 26 -67 -4z"/>
<path d="M3260 2567 c-42 -21 -65 -81 -64 -172 0 -103 20 -150 69 -171 59 -24
115 5 115 59 l0 30 -21 -27 c-23 -29 -60 -34 -79 -11 -7 9 -15 38 -18 65 l-5
50 67 0 66 0 0 53 c0 61 -27 112 -66 127 -32 12 -34 12 -64 -3z m60 -46 c5
-11 10 -36 10 -55 0 -34 -2 -36 -35 -36 -33 0 -35 2 -35 33 0 33 23 77 40 77
5 0 14 -9 20 -19z"/>
<path d="M3545 2556 c-23 -23 -25 -23 -30 -5 -5 14 -16 19 -46 19 -42 0 -52
-17 -24 -40 12 -10 15 -38 15 -136 0 -113 -2 -125 -20 -136 -39 -25 -24 -38
45 -38 67 0 83 13 50 40 -11 10 -15 36 -15 111 0 110 10 149 39 149 28 0 31
-18 31 -166 l0 -134 50 0 c36 0 50 4 50 14 0 8 -7 16 -15 20 -12 4 -15 25 -16
98 0 129 -11 188 -39 210 -30 24 -46 23 -75 -6z"/>
<path d="M3774 2570 c-35 -14 -54 -50 -54 -103 0 -51 11 -66 89 -125 32 -25
40 -59 19 -80 -29 -29 -78 5 -78 55 0 29 -28 20 -36 -12 -9 -38 5 -66 42 -81
42 -18 78 -10 103 23 48 61 34 136 -35 183 -54 38 -69 62 -54 91 17 31 51 21
65 -20 10 -32 12 -33 28 -17 9 10 17 25 17 35 0 38 -64 69 -106 51z"/>
<path d="M4094 2566 c-44 -20 -56 -53 -28 -80 23 -24 44 -20 44 8 0 29 26 54
42 38 5 -5 13 -31 15 -56 l6 -45 -44 -7 c-65 -11 -89 -40 -89 -109 0 -46 4
-60 25 -81 29 -29 59 -26 86 9 l17 20 6 -21 c6 -17 15 -22 42 -22 34 0 44 15
25 35 -5 6 -11 70 -13 142 -3 117 -5 135 -23 152 -27 27 -73 34 -111 17z m72
-228 c-8 -58 -26 -84 -50 -75 -11 4 -16 19 -16 47 0 55 15 80 47 80 25 0 25
-1 19 -52z"/>
<path d="M5080 2568 c-32 -17 -48 -61 -30 -82 19 -24 50 -20 50 7 0 31 15 51
34 44 12 -5 16 -20 16 -56 0 -51 -8 -61 -54 -61 -12 0 -33 -11 -46 -25 -20
-21 -24 -37 -24 -82 0 -48 3 -58 27 -79 35 -30 39 -30 76 2 30 25 31 25 31 5
0 -18 6 -21 40 -21 28 0 40 4 40 14 0 8 -4 18 -10 21 -6 3 -10 50 -10 103 -1
112 -11 178 -32 198 -21 21 -79 27 -108 12z m70 -226 c0 -55 -19 -88 -44 -79
-12 5 -16 19 -16 55 0 51 12 72 42 72 15 0 18 -8 18 -48z"/>
<path d="M5690 2568 c-42 -22 -65 -82 -64 -173 0 -103 20 -150 69 -171 59 -24
115 5 115 59 l0 30 -21 -27 c-43 -54 -99 -16 -99 69 l0 35 70 0 71 0 -7 53
c-7 54 -24 96 -46 114 -23 19 -62 24 -88 11z m60 -47 c5 -11 10 -36 10 -55 0
-34 -2 -36 -35 -36 -33 0 -35 2 -35 33 0 33 23 77 40 77 5 0 14 -9 20 -19z"/>
<path d="M5914 2566 c-64 -28 -68 -142 -7 -183 43 -30 83 -71 83 -85 0 -54
-74 -63 -86 -10 -11 53 -13 55 -29 42 -21 -17 -19 -63 4 -91 14 -18 29 -24 61
-24 58 0 90 37 90 104 0 55 -20 87 -75 121 -39 24 -54 62 -35 85 22 26 50 18
57 -15 6 -34 14 -42 30 -32 21 14 24 49 6 70 -24 28 -61 35 -99 18z"/>
<path d="M3030 2555 c0 -7 8 -18 18 -24 15 -8 17 -26 17 -136 0 -109 -2 -128
-17 -139 -34 -25 -20 -36 47 -36 67 0 83 13 50 40 -12 10 -15 41 -15 161 l0
149 -50 0 c-37 0 -50 -4 -50 -15z"/>
<path d="M4740 2556 c0 -7 7 -19 15 -26 12 -10 15 -47 15 -217 0 -172 -2 -205
-15 -209 -8 -4 -15 -15 -15 -25 0 -17 8 -19 65 -19 58 0 65 2 65 20 0 11 -6
20 -14 20 -20 0 -26 23 -26 95 l0 64 25 -24 c46 -46 94 -22 116 57 18 67 8
212 -18 246 -27 36 -86 43 -105 13 -16 -27 -28 -27 -28 -1 0 17 -7 20 -40 20
-27 0 -40 -4 -40 -14z m160 -41 c15 -19 25 -160 13 -204 -12 -46 -37 -62 -60
-38 -15 15 -18 35 -18 115 0 98 12 142 39 142 8 0 19 -7 26 -15z"/>
<path d="M2636 1904 c-9 -8 -16 -21 -16 -27 0 -6 7 -1 16 11 8 12 21 22 29 22
8 0 21 -10 29 -22 9 -12 16 -17 16 -11 0 16 -28 43 -45 43 -7 0 -21 -7 -29
-16z"/>
<path d="M3346 1904 c-22 -21 -20 -78 2 -95 15 -13 16 -12 4 3 -21 27 -11 80
18 95 17 9 20 13 8 13 -9 0 -24 -7 -32 -16z"/>
<path d="M4686 1904 c-22 -21 -21 -78 2 -95 14 -11 15 -11 5 1 -18 19 -16 75
2 90 20 17 49 4 63 -28 10 -25 11 -25 6 -2 -11 46 -50 63 -78 34z"/>
<path d="M5802 1908 c-20 -20 -14 -37 19 -54 23 -11 30 -21 26 -35 -3 -10 -1
-17 4 -13 20 12 8 42 -21 54 -36 15 -39 37 -7 50 13 5 16 9 7 9 -9 1 -21 -4
-28 -11z"/>
<path d="M2141 1905 c1 -19 18 -51 18 -35 0 8 -4 22 -9 30 -5 8 -9 11 -9 5z"/>
<path d="M2255 1899 c-4 -6 -5 -12 -2 -15 2 -3 7 2 10 11 7 17 1 20 -8 4z"/>
<path d="M2318 1900 c6 -8 12 -28 12 -45 0 -17 -6 -37 -12 -45 -11 -12 -10
-12 5 -1 10 8 17 27 17 46 0 19 -7 38 -17 46 -15 11 -16 11 -5 -1z"/>
<path d="M2520 1891 c-14 -28 -13 -54 5 -77 14 -18 14 -17 3 9 -9 21 -9 36 -1
58 13 33 9 39 -7 10z"/>
<path d="M2751 1853 c1 -65 5 -61 12 10 2 26 1 47 -4 47 -5 0 -9 -26 -8 -57z"/>
<path d="M2838 1868 c5 -71 10 -77 11 -15 0 31 -2 57 -7 57 -4 0 -6 -19 -4
-42z"/>
<path d="M2893 1855 c0 -33 2 -45 4 -27 2 18 2 45 0 60 -2 15 -4 0 -4 -33z"/>
<path d="M2950 1895 c10 -12 10 -18 -1 -32 -12 -17 -12 -17 4 -2 18 16 14 49
-5 49 -6 0 -5 -6 2 -15z"/>
<path d="M3096 1894 c-9 -24 -2 -26 12 -4 7 11 8 20 3 20 -5 0 -12 -7 -15 -16z"/>
<path d="M3211 1853 c1 -62 6 -56 11 15 2 23 0 42 -4 42 -5 0 -7 -26 -7 -57z"/>
<path d="M3283 1870 c0 -25 2 -35 4 -22 2 12 2 32 0 45 -2 12 -4 2 -4 -23z"/>
<path d="M3406 1897 c3 -10 9 -15 12 -12 3 3 0 11 -7 18 -10 9 -11 8 -5 -6z"/>
<path d="M3461 1853 c1 -62 6 -56 11 15 2 23 0 42 -4 42 -5 0 -7 -26 -7 -57z"/>
<path d="M3532 1880 c0 -19 2 -27 5 -17 2 9 2 25 0 35 -3 9 -5 1 -5 -18z"/>
<path d="M3587 1903 c-15 -14 -5 -32 28 -52 19 -11 35 -17 35 -13 0 4 -14 15
-31 25 -20 11 -29 22 -25 32 6 16 3 19 -7 8z"/>
<path d="M3900 1864 c0 -27 -4 -43 -10 -39 -6 3 -7 -1 -4 -9 13 -33 24 -14 24
39 0 30 -2 55 -5 55 -3 0 -5 -21 -5 -46z"/>
<path d="M4053 1855 c0 -33 2 -45 4 -27 2 18 2 45 0 60 -2 15 -4 0 -4 -33z"/>
<path d="M4117 1894 c4 -10 0 -22 -11 -30 -14 -10 -15 -16 -6 -33 6 -12 13
-21 16 -21 2 0 0 9 -5 19 -8 14 -7 22 4 31 17 14 20 36 5 45 -6 4 -7 -1 -3
-11z"/>
<path d="M4163 1855 c0 -33 2 -45 4 -27 2 18 2 45 0 60 -2 15 -4 0 -4 -33z"/>
<path d="M4303 1855 c0 -33 2 -45 4 -27 2 18 2 45 0 60 -2 15 -4 0 -4 -33z"/>
<path d="M4350 1906 c0 -2 8 -10 18 -17 15 -13 16 -12 3 4 -13 16 -21 21 -21
13z"/>
<path d="M4423 1855 c0 -33 2 -45 4 -27 2 18 2 45 0 60 -2 15 -4 0 -4 -33z"/>
<path d="M4563 1855 c0 -33 2 -45 4 -27 2 18 2 45 0 60 -2 15 -4 0 -4 -33z"/>
<path d="M4615 1900 c3 -5 8 -10 11 -10 2 0 4 5 4 10 0 6 -5 10 -11 10 -5 0
-7 -4 -4 -10z"/>
<path d="M4801 1853 c1 -62 6 -56 11 15 2 23 0 42 -4 42 -5 0 -7 -26 -7 -57z"/>
<path d="M4873 1875 c0 -22 2 -30 4 -17 2 12 2 30 0 40 -3 9 -5 -1 -4 -23z"/>
<path d="M4922 1853 l2 -58 3 53 c3 35 8 50 15 46 7 -4 8 -2 4 4 -16 27 -26 9
-24 -45z"/>
<path d="M5000 1858 c0 -49 -1 -51 -16 -32 -14 18 -15 18 -4 -3 18 -38 30 -26
30 32 0 30 -2 55 -5 55 -3 0 -5 -23 -5 -52z"/>
<path d="M5053 1855 c0 -33 2 -45 4 -27 2 18 2 45 0 60 -2 15 -4 0 -4 -33z"/>
<path d="M5293 1855 c0 -33 2 -45 4 -27 2 18 2 45 0 60 -2 15 -4 0 -4 -33z"/>
<path d="M5513 1855 c0 -33 2 -45 4 -27 2 18 2 45 0 60 -2 15 -4 0 -4 -33z"/>
<path d="M5693 1855 c0 -33 2 -45 4 -27 2 18 2 45 0 60 -2 15 -4 0 -4 -33z"/>
<path d="M5352 1870 c-7 -11 -8 -20 -3 -20 9 0 24 30 18 36 -1 2 -8 -6 -15
-16z"/>
<path d="M2241 1854 c0 -11 3 -14 6 -6 3 7 2 16 -1 19 -3 4 -6 -2 -5 -13z"/>
<path d="M3416 1845 c-4 -16 -13 -33 -19 -37 -9 -6 -9 -8 1 -8 14 0 35 46 29
64 -2 6 -7 -3 -11 -19z"/>
<path d="M3500 1850 c6 -11 13 -20 16 -20 2 0 0 9 -6 20 -6 11 -13 20 -16 20
-2 0 0 -9 6 -20z"/>
<path d="M4381 1854 c0 -11 3 -14 6 -6 3 7 2 16 -1 19 -3 4 -6 -2 -5 -13z"/>
<path d="M2424 1848 c13 -10 17 -21 12 -34 -6 -15 -5 -17 6 -6 14 14 2 43 -23
50 -8 2 -5 -2 5 -10z"/>
<path d="M2986 1836 c-4 -15 -5 -31 -1 -34 3 -3 5 2 5 11 0 12 9 17 30 17 17
0 30 -5 30 -12 0 -6 2 -9 5 -6 3 3 1 16 -4 29 -5 13 -10 18 -10 12 -1 -17 -38
-17 -43 -1 -3 7 -8 0 -12 -16z"/>
<path d="M5194 1848 c13 -10 17 -21 12 -34 -6 -15 -5 -17 6 -6 14 14 2 43 -23
50 -8 2 -5 -2 5 -10z"/>
<path d="M5441 1851 c-1 -9 -9 -12 -26 -9 -14 3 -25 1 -25 -3 0 -5 14 -9 30
-9 17 0 30 -5 30 -12 0 -6 2 -9 5 -6 3 3 1 16 -4 29 -5 13 -10 18 -10 10z"/>
<path d="M3260 1831 c5 -11 15 -23 21 -27 6 -3 3 5 -6 20 -20 30 -30 35 -15 7z"/>
<path d="M4628 1827 c-3 -19 -2 -25 4 -19 6 6 8 18 6 28 -3 14 -5 12 -10 -9z"/>
<path d="M2620 1834 c0 -13 18 -39 24 -34 2 3 -2 14 -10 24 -8 11 -14 16 -14
10z"/>
<path d="M2692 1820 c-7 -11 -8 -20 -3 -20 9 0 24 30 18 36 -1 2 -8 -6 -15
-16z"/>
<path d="M3090 1834 c0 -13 18 -39 24 -34 2 3 -2 14 -10 24 -8 11 -14 16 -14
10z"/>
<path d="M4742 1820 c-7 -11 -8 -20 -3 -20 9 0 24 30 18 36 -1 2 -8 -6 -15
-16z"/>
<path d="M2190 1821 c0 -7 -4 -9 -10 -6 -5 3 -10 1 -10 -4 0 -6 4 -11 9 -11
13 0 25 20 17 27 -3 4 -6 1 -6 -6z"/>
<path d="M2250 1821 c0 -13 39 -35 48 -27 3 3 0 6 -6 6 -6 0 -18 7 -26 16 -9
8 -16 11 -16 5z"/>
<path d="M4359 1813 c-13 -16 -12 -17 4 -4 9 7 17 15 17 17 0 8 -8 3 -21 -13z"/>
<path d="M3626 1804 c-11 -8 -16 -14 -10 -14 13 0 39 18 34 24 -3 2 -14 -2
-24 -10z"/>
</g>
</svg>
